<?xml version="1.0" encoding="UTF-8" standalone="no"?> <!-- Created with Inkscape (http://www.inkscape.org/) --> <svg xmlns:dc="http://purl.org/dc/elements/1.1/" xmlns:cc="http://creativecommons.org/ns#" xmlns:rdf="http://www.w3.org/1999/02/22-rdf-syntax-ns#" xmlns:svg="http://www.w3.org/2000/svg" xmlns="http://www.w3.org/2000/svg" xmlns:sodipodi="http://sodipodi.sourceforge.net/DTD/sodipodi-0.dtd" xmlns:inkscape="http://www.inkscape.org/namespaces/inkscape" width="210" height="297" viewBox="0 0 210 297" id="svg8" inkscape:version="0.92.4 (5da689c313, 2019-01-14)" sodipodi:docname="gringotts.svg"><defs id="defs2"></defs><metadata id="metadata5"></metadata><g inkscape:label="Layer 1" inkscape:groupmode="layer" id="layer1"><path style="fill:#866d1c;stroke-width:0.18231288" d="m 79.51313,217.27394 c -5.36288,-0.45113 -12.46468,-2.11045 -16.54291,-3.86519 -0.42506,-0.1829 -0.84405,-0.33254 -0.93109,-0.33254 -0.19101,0 -3.25677,-1.47226 -4.40355,-2.11471 -0.45122,-0.25278 -1.16908,-0.62259 -1.59523,-0.82179 -0.42871,-0.2004 -0.77484,-0.49004 -0.77484,-0.6484 0,-0.19055 -0.11477,-0.25618 -0.34345,-0.19638 -0.19763,0.0517 -0.46398,-0.0509 -0.62727,-0.24164 -0.1561,-0.18231 -0.61459,-0.43056 -1.01888,-0.5517 -0.40428,-0.12112 -0.89797,-0.37199 -1.09708,-0.5575 -0.19911,-0.18549 -0.40283,-0.33726 -0.4527,-0.33726 -0.1425,0 -1.32444,-0.82691 -1.65636,-1.15881 -0.16482,-0.16483 -0.38644,-0.29969 -0.49246,-0.29969 -0.10603,0 -0.49368,-0.26664 -0.86147,-0.59252 -0.60112,-0.53265 -1.48775,-1.27365 -2.62248,-2.19176 -0.7998,-0.64712 -2.18963,-1.88685 -3.16352,-2.82185 -0.54832,-0.52642 -1.04288,-0.95714 -1.09901,-0.95714 -0.1183,0 -2.94395,-2.91708 -3.88504,-4.01074 -0.35096,-0.40784 -0.94574,-1.06054 -1.32177,-1.45043 -0.37602,-0.38988 -0.68368,-0.77969 -0.68368,-0.86623 0,-0.0865 -0.20781,-0.40063 -0.46182,-0.69798 -0.94823,-1.11 -3.77803,-5.14026 -4.41187,-6.28346 -0.36136,-0.65177 -1.05343,-1.86439 -1.53792,-2.69471 -0.48449,-0.83032 -0.8809,-1.55629 -0.8809,-1.61326 0,-0.057 -0.13256,-0.40314 -0.29458,-0.76924 -0.48317,-1.0918 -1.02745,-2.28309 -1.21409,-2.65734 -0.0962,-0.19298 -0.70152,-1.95686 -1.34506,-3.91972 -1.74021,-5.30789 -2.70713,-9.53294 -3.25751,-14.23416 -1.12128,-9.57756 0.22086,-20.26467 3.7091,-29.53468 2.21079,-5.8752 3.36937,-8.16831 6.3912,-12.6498 0.26268,-0.38956 0.79581,-1.20997 1.18471,-1.82313 0.38892,-0.61315 0.75951,-1.15584 0.82357,-1.20598 0.0641,-0.0501 0.68044,-0.7885 1.36975,-1.64082 0.68931,-0.85231 1.36473,-1.64074 1.50092,-1.75207 0.1362,-0.11132 0.24764,-0.26075 0.24764,-0.33206 0,-0.0713 1.08978,-1.21084 2.42172,-2.53228 3.64452,-3.61577 5.61919,-5.29244 8.51705,-7.23173 1.05286,-0.70458 1.99633,-1.34436 2.0966,-1.42173 0.68254,-0.526618 2.59013,-1.679778 2.77875,-1.679778 0.12618,0 0.22941,-0.0656 0.22941,-0.14577 0,-0.0802 0.88194,-0.54087 1.95986,-1.02378 1.07793,-0.4829 2.32906,-1.06657 2.78028,-1.29704 0.81448,-0.41602 5.37053,-2.17663 7.29251,-2.81807 1.76414,-0.58877 6.28109,-1.65113 8.60003,-2.02268 4.37924,-0.70167 12.93591,-1.16552 13.61053,-0.73782 0.16828,0.10668 0.22752,0.50456 0.19474,1.30792 -0.0312,0.76326 0.0259,1.17894 0.16834,1.22642 0.15223,0.0507 0.21547,-0.30719 0.21547,-1.21957 v -1.29138 h 0.79382 c 1.55244,0 8.32364,1.16886 10.0538,1.7355 0.40109,0.13136 1.2215,0.33646 1.82313,0.45577 0.97174,0.19271 4.73315,1.46017 6.19864,2.08872 0.30082,0.12902 1.24428,0.50298 2.0966,0.83102 1.43228,0.55125 2.94269,1.29412 6.04223,2.97177 1.14168,0.61794 4.77051,3.003458 5.84231,3.840618 0.2695,0.2105 0.8848,0.66934 1.36735,1.01966 0.48255,0.35031 0.91837,0.67864 0.96851,0.72962 0.0501,0.051 0.78851,0.68089 1.64082,1.39979 1.5401,1.29903 7.05446,6.91072 7.60489,7.73913 0.15835,0.23831 0.38552,0.51533 0.50481,0.61561 0.1193,0.10027 0.43826,0.53377 0.70879,0.96334 0.27053,0.42957 0.63265,0.92983 0.80472,1.11169 0.47869,0.50595 0.95138,1.18501 2.02522,2.90946 0.54072,0.86833 1.21292,1.94796 1.49378,2.39918 0.74773,1.20129 3.72007,7.21857 4.14261,8.38639 0.19954,0.5515 0.57767,1.57701 0.84028,2.27891 0.26262,0.70191 0.5908,1.6864 0.72929,2.18775 0.13849,0.50136 0.4693,1.645 0.73514,2.54142 0.26584,0.89642 0.63733,2.49621 0.82553,3.5551 0.1882,1.05889 0.47111,2.6226 0.6287,3.47491 0.54828,2.96547 0.88123,7.89446 0.76354,11.3034 -0.12636,3.65973 -0.5197,7.85286 -0.95359,10.16565 -0.59288,3.16025 -1.96533,8.28202 -2.6254,9.79761 -0.0873,0.20054 -0.37258,0.97993 -0.63387,1.73197 -0.44246,1.27345 -2.10024,5.046 -2.76396,6.2898 -1.44091,2.70025 -2.59364,4.72848 -3.18504,5.60406 -0.38867,0.57543 -0.70667,1.1292 -0.70667,1.2306 0,0.10141 -0.0615,0.18783 -0.13673,0.19205 -0.0752,0.004 -0.44806,0.43494 -0.82856,0.95715 -2.31044,3.17089 -4.94103,6.3277 -5.27293,6.3277 -0.0464,0 -0.93838,0.84305 -1.98223,1.87346 -1.04385,1.03041 -2.55424,2.43275 -3.35642,3.11632 -0.80217,0.68357 -1.67675,1.44031 -1.94349,1.68164 -0.26674,0.24133 -0.56756,0.43878 -0.66848,0.43878 -0.10092,0 -0.21084,0.0665 -0.24426,0.14781 -0.18915,0.46006 -7.14116,4.89455 -9.81451,6.26039 -5.7973,2.96191 -13.05907,5.2066 -19.72719,6.09788 -2.38014,0.31815 -10.31673,0.47823 -12.90682,0.26035 z m 13.67347,-9.56249 c 4.06664,-0.69291 6.65609,-1.34562 10.20952,-2.5735 2.60781,-0.90112 7.60185,-3.21669 9.35181,-4.33613 0.57591,-0.3684 1.09228,-0.66983 1.1475,-0.66983 0.16905,0 3.37387,-2.27451 4.72527,-3.35361 2.28329,-1.82321 2.47605,-1.99644 4.92163,-4.42315 2.36861,-2.35035 4.29565,-4.62701 5.91705,-6.99057 0.44711,-0.65177 0.91285,-1.26708 1.03498,-1.36735 0.39059,-0.32069 2.23746,-3.40354 3.16738,-5.28707 2.63537,-5.33788 4.32439,-10.67844 5.10458,-16.14028 1.25085,-8.75678 0.70709,-16.7194 -1.71153,-25.06243 -0.93562,-3.2274 -3.68946,-9.27136 -5.29391,-11.61871 -0.42976,-0.62875 -0.92874,-1.43033 -1.10883,-1.78129 -0.47972,-0.9348 -4.81181,-6.67111 -5.92041,-7.83945 -0.52329,-0.5515 -1.34273,-1.41293 -1.82097,-1.91429 -2.50772,-2.62897 -7.63513,-6.7001 -10.76353,-8.54617 -3.39161,-2.00139 -10.01606,-4.7289 -13.30884,-5.47971 -0.75204,-0.17147 -1.8596,-0.438278 -2.46123,-0.592888 -3.00276,-0.7717 -9.34458,-1.39 -12.67075,-1.23536 -2.54475,0.11831 -6.58244,0.51924 -8.38639,0.83273 -5.60956,0.974838 -13.74985,3.994058 -17.86666,6.626708 -0.35095,0.22443 -1.06053,0.67002 -1.57684,0.9902 -2.4248,1.50371 -8.19277,6.19132 -9.2109,7.48566 -0.19696,0.25039 -0.94918,1.07292 -1.67161,1.82786 -3.57756,3.73853 -8.46427,11.47749 -10.26942,16.26347 -1.50213,3.98258 -2.44796,7.04955 -2.80119,9.08327 -0.0784,0.45124 -0.35743,2.05103 -0.62014,3.55511 -0.84428,4.8338 -0.84066,10.8446 0.01,16.49931 0.85363,5.67482 3.11712,12.70475 5.54723,17.22857 1.59033,2.96047 4.47432,7.26158 5.92854,8.84163 0.50785,0.5518 1.10848,1.24938 1.33473,1.5502 0.58496,0.77773 4.51667,4.75019 5.77417,5.83401 4.27416,3.68385 10.40291,7.32028 15.98587,9.48507 4.06384,1.57575 8.7748,2.75714 13.03049,3.26771 2.95605,0.35464 11.83695,0.25526 14.27246,-0.15972 z m -6.16053,-2.47185 c -1.05426,-0.24979 -1.77856,-1.02495 -2.81344,-3.011 l -0.75998,-1.45851 -0.0752,-2.57478 c -0.0974,-3.33745 0.34718,-5.02347 1.73093,-6.56419 1.00229,-1.11597 1.92132,-1.25342 3.49194,-0.52226 0.95431,0.44426 0.97628,0.4461 1.06957,0.0894 0.0705,-0.2694 0.24879,-0.3642 0.68514,-0.3642 h 0.5899 l 0.22579,1.86871 c 0.12419,1.02779 0.19783,2.27891 0.16366,2.78027 -0.0615,0.90322 -0.0678,0.91156 -0.68282,0.91156 -0.58218,0 -0.63997,-0.0567 -0.93127,-0.91369 -0.67302,-1.97998 -1.59934,-3.18834 -2.44416,-3.18834 -0.51803,0 -0.97571,1.04844 -1.10301,2.52673 -0.14589,1.69423 0.17596,5.96367 0.54736,7.26062 0.42678,1.49037 1.41508,2.03138 2.25497,1.23439 0.29924,-0.28395 0.31736,-2.48581 0.0267,-3.25017 -0.15388,-0.40475 -0.29299,-0.47906 -0.89675,-0.47906 -0.70277,0 -0.71579,-0.0123 -0.78546,-0.74288 -0.039,-0.40859 -0.0108,-0.78 0.0626,-0.82536 0.0734,-0.0453 1.32729,-0.13405 2.78639,-0.19707 l 2.65293,-0.11458 v 0.84879 c 0,0.77699 -0.0374,0.84879 -0.44241,0.84879 -0.57545,0 -0.60057,0.15322 -0.50066,3.05374 l 0.0832,2.41564 h -0.50712 c -0.27891,0 -0.60796,-0.13791 -0.73122,-0.30648 -0.20489,-0.28021 -0.29911,-0.25677 -1.09965,0.27348 -0.89536,0.59306 -1.43445,0.67615 -2.59806,0.40047 z m -12.25308,-0.90338 c -0.41594,-0.10593 -0.48556,-0.27485 -0.79646,-1.93226 -0.96189,-5.12788 -1.50043,-7.58162 -1.66476,-7.5851 -0.2312,-0.005 -1.31223,3.89212 -1.47241,5.3079 -0.11966,1.0577 -0.11565,1.0699 0.44794,1.36134 0.59931,0.30991 0.74631,0.88836 0.39336,1.54786 -0.16621,0.31056 -0.26349,0.30205 -1.86871,-0.16328 -2.397,-0.69483 -2.5278,-0.77993 -2.31885,-1.50852 0.0933,-0.32541 0.16969,-0.61271 0.16969,-0.63844 0,-0.0257 0.24612,-0.0467 0.54694,-0.0467 0.30082,0 0.69461,-0.14768 0.87511,-0.32817 0.3559,-0.3559 2.12619,-7.18389 2.33556,-9.00822 0.11494,-1.00152 0.10094,-1.0496 -0.3676,-1.26309 -0.29907,-0.13626 -0.44918,-0.32071 -0.38889,-0.47783 0.054,-0.14076 0.0982,-0.41586 0.0982,-0.61134 0,-0.56347 0.45987,-0.60154 2.0629,-0.17074 l 1.49632,0.40211 0.68917,3.49375 c 0.37904,1.92156 0.76512,3.5697 0.85795,3.66253 0.19678,0.19678 0.19027,0.21502 0.72456,-2.02805 0.4444,-1.86564 0.32488,-2.84224 -0.37006,-3.02397 -0.19667,-0.0514 -0.32308,-0.20365 -0.2809,-0.33827 0.0422,-0.13462 0.12466,-0.46459 0.18331,-0.73327 l 0.10663,-0.48851 2.04494,0.5479 c 2.33338,0.62516 2.41042,0.65871 2.17408,0.94671 -0.0955,0.11641 -0.20206,0.41675 -0.23674,0.66744 -0.0514,0.37185 -0.15087,0.44558 -0.53992,0.40037 -0.58495,-0.068 -1.34867,0.75673 -1.52452,1.64628 -0.0649,0.32829 -0.18794,0.80199 -0.27343,1.05267 -0.15982,0.46871 -0.81219,2.92639 -1.83894,6.92789 -0.32161,1.2534 -0.63513,2.32802 -0.69671,2.38805 -0.0616,0.06 -0.31708,0.0569 -0.56776,-0.007 z m 26.70558,-2.52806 c -1.57956,-0.74233 -3.64567,-3.26309 -4.37964,-5.34338 -0.42767,-1.21213 -0.78142,-3.96718 -0.64107,-4.99264 0.38398,-2.8055 2.70317,-4.13923 5.09234,-2.92856 1.78192,0.90297 3.79213,3.79259 4.47699,6.43556 0.32997,1.27339 0.37372,3.64432 0.0863,4.6793 -0.10894,0.39237 -0.53778,1.06789 -0.95612,1.50607 -0.69358,0.72651 -0.85231,0.80287 -1.85246,0.89124 -0.84215,0.0744 -1.26245,0.0174 -1.82639,-0.24759 z m 1.71644,-1.0941 c 0.4233,-0.79094 0.24044,-3.02424 -0.39845,-4.86642 -0.33855,-0.97615 -1.7655,-3.80626 -2.36113,-4.68288 -0.60727,-0.89375 -1.13269,-1.24228 -1.87277,-1.24228 -1.17015,0 -1.1111,1.91096 0.17745,5.74286 0.97928,2.91217 2.70101,5.37822 3.75492,5.37822 0.31844,0 0.59274,-0.12912 0.69998,-0.3295 z m -43.20169,-2.19971 c -1.70395,-0.94102 -2.90397,-1.72992 -2.90435,-1.90932 -5.2e-4,-0.29069 0.62513,-1.21317 0.82293,-1.21317 0.10874,0 0.29063,0.0929 0.40421,0.20652 0.11359,0.11359 0.32906,0.15951 0.47882,0.10204 0.38499,-0.14773 1.92905,-2.54409 3.66421,-5.68678 1.9853,-3.59573 1.96695,-3.54206 1.35096,-3.95106 -0.37249,-0.24733 -0.37636,-0.28207 -0.0925,-0.83109 0.16296,-0.31513 0.36435,-0.61503 0.44754,-0.66644 0.13319,-0.0823 3.86738,2.04836 4.30385,2.45571 0.1012,0.0945 0.0329,0.40815 -0.1716,0.78784 -0.28715,0.53321 -0.39344,0.60215 -0.6865,0.44532 -0.68656,-0.36744 -1.10856,-0.0298 -2.24673,1.79752 -0.6116,0.98193 -1.39899,2.31859 -1.74978,2.97036 -0.35079,0.65177 -0.94314,1.66229 -1.31633,2.2456 -0.85956,1.34351 -1.02945,2.19476 -0.4951,2.48074 0.36786,0.19687 0.37053,0.22541 0.0784,0.83805 -0.16634,0.34883 -0.38981,0.62416 -0.49657,0.61183 -0.10677,-0.0123 -0.73294,-0.31998 -1.39149,-0.68367 z m 54.17231,-3.0539 -0.44274,-0.43988 0.57947,-0.59786 c 0.31871,-0.32882 0.57947,-0.77388 0.57947,-0.98901 0,-0.30221 -1.76833,-2.63623 -2.38396,-3.1466 -0.0605,-0.0501 -0.50046,-0.54238 -0.97774,-1.09387 -2.09802,-2.42426 -3.12367,-3.46395 -3.41719,-3.46395 -0.28821,0 -0.29348,0.0614 -0.0617,0.71841 0.35387,1.00297 1.08975,2.28542 2.03251,3.54214 l 0.80275,1.07007 -0.39531,0.34286 c -0.21743,0.18857 -0.45333,0.34285 -0.52423,0.34285 -0.25126,0 -1.27225,-1.0734 -3.88469,-4.08407 -0.18259,-0.21043 -0.53126,-0.6075 -0.77483,-0.88238 -0.24357,-0.27488 -0.44285,-0.57844 -0.44285,-0.67459 0,-0.18319 4.40902,-4.08023 5.68434,-5.02427 l 0.73887,-0.54693 1.36596,1.4585 c 1.81442,1.93735 3.51423,4.03922 3.51423,4.34545 0,0.13586 -0.16471,0.39608 -0.36603,0.57827 -0.35846,0.32441 -0.3899,0.30771 -1.51992,-0.80766 -0.63464,-0.62639 -1.51946,-1.3767 -1.96626,-1.66734 -0.86647,-0.56363 -2.08306,-0.9201 -1.96064,-0.57449 0.0385,0.10868 1.31447,1.61838 2.8355,3.35488 1.52103,1.7365 2.93838,3.37804 3.14966,3.64787 0.6041,0.77148 1.03418,0.81149 1.83192,0.17041 l 0.69551,-0.55894 0.49343,0.64693 c 0.47306,0.6202 0.47942,0.65681 0.15422,0.88631 -0.18658,0.13166 -0.54897,0.43289 -0.80532,0.66939 -2.04754,1.88901 -3.72043,3.26389 -3.93817,3.23662 -0.0845,-0.0106 -0.35279,-0.21718 -0.59629,-0.45912 z m -63.89739,-3.82851 -1.07754,-1.18149 0.31672,-0.66417 c 0.1742,-0.36529 0.89175,-1.63929 1.59456,-2.8311 0.7028,-1.19181 1.23011,-2.21465 1.17179,-2.27296 -0.18657,-0.18657 -0.89899,0.25561 -1.97894,1.22828 -1.33459,1.20202 -1.46267,1.43993 -1.12531,2.09018 0.24844,0.47887 0.23606,0.53667 -0.20185,0.9425 -0.59214,0.54878 -0.70006,0.54245 -1.17683,-0.069 -0.21501,-0.27575 -0.97806,-1.10448 -1.69567,-1.84162 l -1.30475,-1.34025 0.60572,-0.5412 c 0.5561,-0.49689 0.63159,-0.51776 0.92196,-0.25498 0.17394,0.15742 0.42106,0.28621 0.54914,0.28621 0.31343,0 1.47266,-0.90687 3.02005,-2.36262 0.7019,-0.66034 1.80775,-1.65001 2.45743,-2.19926 0.64968,-0.54927 1.44958,-1.25709 1.77755,-1.57295 0.61609,-0.59333 0.77141,-1.27428 0.37994,-1.66575 -0.16693,-0.16693 -0.11803,-0.32102 0.21409,-0.67455 0.23675,-0.25201 0.52643,-0.45819 0.64373,-0.45819 0.17823,0 3.19257,3.22111 4.34662,4.64478 0.54705,0.67486 0.59711,1.92877 0.11664,2.92129 -0.91101,1.8819 -2.11098,2.71282 -3.93724,2.72636 -0.67071,0.005 -1.22782,-0.0883 -1.40494,-0.23535 -0.42789,-0.35511 -0.67347,-0.1048 -0.651,0.66351 0.0145,0.49609 -0.22334,1.10494 -0.90124,2.30698 -0.90298,1.60113 -0.91515,1.64287 -0.6231,2.13726 0.28512,0.48267 0.27935,0.52392 -0.13495,0.96494 -0.23805,0.25338 -0.52106,0.45483 -0.62892,0.44767 -0.10786,-0.007 -0.68101,-0.5447 -1.27366,-1.19452 z m 5.44898,-7.93792 c 0.83769,-0.60684 1.73636,-1.85656 1.73537,-2.41326 -3.7e-4,-0.21052 -0.16325,-0.6494 -0.36195,-0.97529 -0.62192,-1.02002 -1.17605,-0.84974 -3.00037,0.92196 -0.85769,0.83297 -1.55945,1.6013 -1.55945,1.70739 0,0.31372 0.74856,1.17184 1.16464,1.33511 0.54468,0.21371 1.18259,0.032 2.02176,-0.57591 z m 69.2214,1.47966 -0.58274,-0.35438 0.46417,-0.7014 c 0.26439,-0.39954 0.41593,-0.82707 0.3521,-0.9934 -0.10025,-0.26124 -1.94042,-1.77073 -2.15863,-1.77073 -0.0484,0 -0.83662,-0.51275 -1.75154,-1.13946 -0.91492,-0.62669 -1.85142,-1.2625 -2.08111,-1.41292 -0.2297,-0.15041 -0.85914,-0.58112 -1.39876,-0.95714 -1.66363,-1.15926 -1.91756,-0.80257 -0.63608,0.8935 0.7611,1.00733 1.87866,2.05905 2.79498,2.63031 0.47093,0.29359 0.51266,0.65538 0.13341,1.15663 -0.25343,0.33495 -0.39682,0.26212 -3.23025,-1.64081 -1.63078,-1.09524 -3.06761,-2.01786 -3.19295,-2.05028 -0.12534,-0.0324 -0.22789,-0.12361 -0.22789,-0.20264 0,-0.079 0.59479,-1.05298 1.32177,-2.16432 0.72697,-1.11134 1.79171,-2.76664 2.3661,-3.67843 l 1.04434,-1.65782 1.3812,0.96408 c 0.75967,0.53024 1.68441,1.16943 2.05499,1.42042 0.37057,0.25099 1.18692,0.80809 1.81409,1.23799 l 1.14032,0.78164 -0.27901,0.53956 c -0.15346,0.29675 -0.31998,0.53956 -0.37004,0.53956 -0.0501,0 -0.68378,-0.29852 -1.40825,-0.66338 -2.43437,-1.22601 -4.32538,-1.72957 -4.32538,-1.15182 0,0.16203 0.35399,0.41817 4.67983,3.38629 2.179,1.4951 3.8008,2.43979 4.18847,2.43979 0.11623,0 0.38075,-0.28714 0.58782,-0.63809 0.20706,-0.35096 0.48406,-0.6381 0.61553,-0.6381 0.30848,0 1.04944,0.51785 1.04944,0.73344 0,0.14603 -1.21377,2.15522 -1.59445,2.63935 -0.0788,0.10027 -0.53297,0.73201 -1.00917,1.40386 -0.4762,0.67186 -0.93191,1.2624 -1.01269,1.31232 -0.0808,0.0499 -0.4091,-0.0687 -0.72962,-0.26362 z m -45.88127,-3.0827 c -1.891,-0.14898 -2.07071,-0.18878 -4.67478,-1.03516 -3.61441,-1.17477 -7.86159,-3.68151 -10.59934,-6.25588 -1.33471,-1.25505 -3.39875,-3.58509 -4.53157,-5.11556 -0.88686,-1.19817 -3.06233,-5.73602 -3.70587,-7.73016 -0.88241,-2.73428 -1.15486,-4.33302 -1.29585,-7.60397 -0.14281,-3.31314 0.15057,-5.85832 1.03532,-8.98182 0.54074,-1.90903 0.55189,-2.01372 0.23889,-2.24259 -0.18058,-0.13205 -0.4406,-0.24008 -0.57781,-0.24008 -0.38175,0 -3.28204,-1.42487 -4.36813,-2.146 -1.18553,-0.78714 -1.10439,-0.94133 0.82683,-1.57108 2.03406,-0.66328 2.62782,-0.79795 4.9384,-1.12009 l 2.08066,-0.29009 1.95713,-1.94862 c 1.7547,-1.74706 2.91296,-2.77939 4.9115,-4.37752 1.03549,-0.82803 3.78414,-2.48901 5.74285,-3.47034 4.52009,-2.26462 9.94747,-3.32054 15.08796,-2.93543 2.3827,0.1785 6.12903,0.76593 7.00237,1.09797 0.24698,0.0939 0.61673,0.17073 0.82167,0.17073 0.36171,0 0.37068,-0.0802 0.30594,-2.7347 -0.0367,-1.50408 -0.0149,-2.73469 0.0485,-2.73469 0.0634,0 0.22903,0.22561 0.36814,0.50136 0.1391,0.27575 0.71247,1.1987 1.27416,2.05103 0.56168,0.8523 1.38484,2.12393 1.82923,2.82584 2.00887,3.17293 3.94719,6.20247 5.3657,8.38639 0.84667,1.30354 1.9615,3.06742 2.47739,3.91973 1.86193,3.0761 3.63385,5.6517 3.88816,5.6517 0.14273,0 0.61106,0.1155 1.04072,0.25668 0.42966,0.14117 1.51957,0.47996 2.42202,0.75287 4.17886,1.2637 7.71824,3.81534 7.74184,5.5813 l 0.007,0.48338 -2.14218,0.12032 c -2.89864,0.16281 -9.50177,1.05781 -11.25782,1.52591 -0.76003,0.2026 -0.78713,0.80803 -0.10117,2.25986 0.30632,0.64834 0.55695,1.27341 0.55695,1.38903 0,0.12603 -0.34684,0.21946 -0.86599,0.23327 -1.67357,0.0445 -1.77754,0.0645 -1.77754,0.34159 0,0.22436 0.2783,0.26724 1.54965,0.23878 0.85231,-0.019 1.78663,-0.0808 2.07625,-0.13722 l 0.52659,-0.10254 -0.12102,1.18123 c -0.25131,2.4529 -1.35159,4.05534 -3.52588,5.13506 -0.77944,0.38705 -1.47743,0.78578 -1.5511,0.88605 -0.25106,0.34172 -0.14674,6.047 0.14739,8.06183 0.66562,4.55934 1.96956,7.02309 4.25764,8.04466 0.62928,0.28096 0.51542,0.29523 -3.35952,0.42114 -6.28593,0.20425 -9.93641,0.25472 -9.93623,0.13739 10e-5,-0.0593 0.42404,-0.33845 0.94209,-0.62042 1.21777,-0.66278 2.27895,-1.62846 2.70305,-2.45977 0.72127,-1.41378 0.90171,-4.37803 0.26651,-4.37803 -0.13733,0 -0.69376,0.55377 -1.23651,1.23061 -4.57887,5.71005 -10.45356,8.00438 -18.80965,7.34605 z m 8.00646,-5.3159 c 3.53288,-0.46571 6.99956,-2.46717 8.8643,-5.11773 0.4011,-0.57012 1.03538,-1.67767 1.40952,-2.46123 0.6389,-1.33805 0.68026,-1.53076 0.68026,-3.17023 0,-1.59982 -0.0419,-1.80891 -0.50219,-2.50415 -1.36083,-2.05557 -5.13015,-2.43189 -6.67982,-0.66692 -0.46483,0.52942 -0.56629,0.80135 -0.56629,1.51773 0,1.19427 0.44124,2.38939 1.21659,3.29522 0.35743,0.41757 0.60762,0.80148 0.55598,0.85312 -0.15423,0.15422 -2.35423,-0.29713 -3.14918,-0.64609 -2.51839,-1.10548 -3.79175,-4.20747 -2.81148,-6.84891 0.74797,-2.01546 3.04674,-3.76083 5.0085,-3.80277 0.68402,-0.0146 1.23012,0.1322 2.18775,0.58815 1.15146,0.54824 3.74396,1.44533 5.92517,2.05031 0.45123,0.12515 1.77696,0.23321 2.94609,0.24014 2.08313,0.0123 2.1415,0.002 2.91605,-0.54233 1.44836,-1.01693 1.1192,-1.3527 -2.07715,-2.11881 -0.97656,-0.23407 -1.77645,-0.47447 -1.77755,-0.53424 -10e-4,-0.0598 0.75688,-0.23663 1.6844,-0.39302 0.92751,-0.15639 1.90746,-0.37036 2.17764,-0.4755 0.44637,-0.17367 0.48104,-0.25438 0.37945,-0.88316 -0.0615,-0.38063 -0.30307,-1.12509 -0.53683,-1.65437 -0.23376,-0.5293 -0.42502,-0.99786 -0.42502,-1.04128 0,-0.11537 1.36029,-0.46266 2.53547,-0.64733 1.1202,-0.17602 1.73008,-0.25153 4.57473,-0.5664 3.08058,-0.34098 3.29066,-0.3601 5.05918,-0.46055 1.48595,-0.0844 1.68639,-0.13596 1.68639,-0.4337 0,-1.436 -2.05272,-2.70552 -7.20135,-4.45376 -1.15531,-0.39228 -5.07829,-1.3472 -7.56599,-1.84169 -2.33492,-0.46411 -2.73079,-0.6712 -2.73849,-1.43256 -0.004,-0.42273 -0.3531,-2.02121 -0.79803,-3.65699 -0.16364,-0.60163 -0.59714,-1.70918 -0.96334,-2.46122 -1.05779,-2.17238 -1.8192,-3.09661 -4.26649,-5.17885 -1.43624,-1.22202 -4.92821,-2.73103 -7.42907,-3.21039 -2.1017,-0.40285 -5.98324,-0.52003 -8.67451,-0.2619 -4.71496,0.45225 -9.77942,2.18642 -13.6037,4.65817 -1.39239,0.89995 -3.90588,3.32411 -4.29345,4.14088 -0.47422,0.99933 -0.30007,1.12828 1.5238,1.12828 1.81478,0 1.72695,0.0444 3.2472,-1.64082 2.48014,-2.74924 5.13806,-4.44302 8.46139,-5.39209 1.39684,-0.3989 6.18393,-0.54141 8.87319,-0.26415 3.67861,0.37927 5.2536,1.27326 7.71652,4.38005 1.89605,2.39173 3.4276,3.69757 4.68302,3.99286 l 0.69597,0.16371 -0.70669,0.0183 c -1.02873,0.0266 -2.73604,-0.90427 -4.07902,-2.22411 -0.6267,-0.61591 -1.13946,-1.1797 -1.13946,-1.25287 0,-0.0732 -0.54669,-0.66646 -1.21487,-1.31842 -1.52516,-1.48812 -3.24362,-2.35126 -5.86529,-2.94599 -3.7779,-0.85702 -8.72944,-0.40175 -11.58278,1.06499 -0.82893,0.4261 -3.29561,2.08281 -4.06363,2.72927 -1.46923,1.23669 -1.74563,1.51293 -1.99359,1.99242 -0.34359,0.66446 -0.2092,0.87915 0.55032,0.87915 0.50349,0 0.84074,-0.2287 2.04026,-1.38359 1.68217,-1.61957 3.77846,-3.07575 4.86342,-3.37835 0.42177,-0.11765 1.38216,-0.21533 2.1342,-0.21709 1.21514,-0.003 1.5094,0.0698 2.64353,0.6528 0.70191,0.3608 1.57476,0.92802 1.93966,1.2605 0.36491,0.33248 1.51349,1.39171 2.55238,2.35385 2.29511,2.12553 2.97444,2.70486 3.8032,3.24337 l 0.6381,0.41464 -0.54695,-0.11798 c -0.94281,-0.20336 -2.55898,-1.23236 -3.86926,-2.46353 -2.64751,-2.48764 -3.24565,-2.95408 -4.7995,-3.74272 -1.21206,-0.61517 -3.02765,-0.79963 -4.31875,-0.43877 -1.87049,0.52279 -4.83842,2.7325 -5.0017,3.72391 -0.0528,0.32051 0.12607,0.39933 1.5339,0.67586 3.348,0.65764 5.19554,1.42107 6.55822,2.70993 l 0.96376,0.91158 -0.89179,-0.54628 c -2.44004,-1.49466 -6.0069,-2.48802 -9.81112,-2.73236 -2.65017,-0.17021 -8.71121,0.0146 -11.17463,0.34081 -3.36588,0.44566 -4.17243,0.75966 -3.53445,1.37601 0.32391,0.31294 2.60044,0.98777 6.17798,1.83133 6.91802,1.63124 7.84621,2.38707 9.76291,7.94997 1.15762,3.35977 1.62782,4.34237 2.53863,5.30513 1.76852,1.86938 5.08796,2.55429 9.16581,1.89122 0.99833,-0.16233 1.50408,-0.18125 1.50408,-0.0563 0,0.36883 -1.61412,1.72678 -2.66706,2.24379 -0.97325,0.47787 -1.24403,0.52555 -2.98464,0.52555 -1.85689,0 -1.95656,-0.0211 -3.32434,-0.70397 -2.40984,-1.20313 -3.06143,-2.20413 -4.62867,-7.11071 -1.55675,-4.87377 -2.89489,-7.11002 -4.77421,-7.97847 -1.08219,-0.5001 -4.35267,-0.72565 -4.6109,-0.31801 -0.25613,0.40432 -0.18199,5.39849 0.10384,6.99552 0.53614,2.99556 1.76999,5.63739 3.6761,7.87097 0.97893,1.14711 3.34243,3.03833 4.78492,3.82878 0.664,0.36386 1.49442,0.83374 1.84537,1.04418 0.7198,0.43159 0.96836,0.52764 4.31551,1.66765 1.32068,0.44981 3.32351,0.98391 4.45074,1.18688 1.12723,0.20298 2.11791,0.41132 2.20151,0.46299 0.43119,0.26649 -1.47523,2.48894 -2.66591,3.10783 -1.48883,0.77387 -2.62267,1.3282 -3.24523,1.58658 -1.4457,0.60002 -0.9565,1.33719 1.92995,2.90819 3.74649,2.03909 7.01174,2.57013 11.86751,1.93004 z m -8.39034,-23.38381 c -0.81817,-0.82289 -1.06367,-0.99385 -2.03037,-1.41386 -1.04697,-0.45489 -3.45555,-0.53018 -4.9206,-0.1538 -0.52464,0.13478 -0.99918,0.19977 -1.05454,0.14441 -0.0554,-0.0554 -0.18368,-0.61626 -0.28517,-1.24645 -0.10149,-0.6302 -0.26941,-1.3044 -0.37314,-1.49823 -0.31463,-0.58788 -0.93962,-1.23283 -1.1947,-1.23283 -0.13233,0 -0.2405,-0.0615 -0.24037,-0.13673 1.8e-4,-0.13977 0.65693,-0.98116 1.20531,-1.54429 0.168,-0.17253 0.34383,-0.71301 0.39073,-1.20108 0.077,-0.80155 0.0276,-0.95313 -0.5112,-1.56674 -0.69577,-0.79244 -1.76444,-1.36392 -3.54629,-1.89642 -1.51578,-0.45299 -5.67856,-1.31188 -6.35828,-1.31188 -0.26315,0 -0.47846,-0.0846 -0.47846,-0.18806 0,-0.23072 3.14184,-0.0716 5.67351,0.28732 1.82537,0.25881 4.51888,1.09319 5.51069,1.70707 1.47234,0.91131 2.38388,2.40054 2.74871,4.49072 0.15302,0.87664 0.30081,1.60772 0.32844,1.62463 0.0276,0.0169 0.6245,0.36611 1.32641,0.776 1.64177,0.95874 3.29205,2.24315 3.84484,2.99241 0.39021,0.5289 0.77117,1.7248 0.59813,1.87767 -0.0371,0.0327 -0.32225,-0.19665 -0.63365,-0.50986 z m 19.62721,-0.46898 c -0.48373,-0.48373 -0.48988,-1.65056 -0.0143,-2.69844 0.43789,-0.96471 0.77794,-1.03984 0.52272,-0.1155 -0.10013,0.36264 -0.13298,0.85489 -0.073,1.09388 0.18407,0.73341 0.92517,0.54573 2.90276,-0.73509 0.98886,-0.64044 2.17845,-1.2751 2.64354,-1.41033 1.09727,-0.31906 3.58399,-0.31616 4.40071,0.005 1.43794,0.56568 1.64082,0.66456 1.64082,0.79968 0,0.0777 -0.22561,0.0782 -0.50136,0.001 -0.27575,-0.0771 -1.44483,-0.13635 -2.59796,-0.13163 -1.76413,0.007 -2.2371,0.0726 -2.98263,0.41232 -0.71672,0.32658 -2.9371,1.79812 -3.86811,2.56355 -0.17753,0.14596 -0.42269,0.23475 -1.38959,0.50328 -0.17035,0.0472 -0.478,-0.0823 -0.68368,-0.28794 z m -4.20252,-5.0585 c -0.15041,-0.0539 -0.84775,-0.36911 -1.54966,-0.70054 -2.73201,-1.29 -3.8859,-1.45372 -5.15034,-0.73077 -0.87131,0.49818 -0.94239,0.40436 -0.39567,-0.52225 0.41296,-0.69991 1.36897,-1.38365 1.93462,-1.38365 0.19604,0 1.27583,0.45606 2.39954,1.01348 2.57206,1.27588 3.59871,1.51391 4.89181,1.13415 l 0.94526,-0.27761 -0.38918,0.5264 c -0.70362,0.95169 -1.69072,1.29738 -2.68638,0.94079 z m -0.71603,-2.30334 c -1.81588,-0.74806 -1.26395,-1.1309 1.58202,-1.09736 1.81309,0.0213 1.88745,-0.025 1.47848,-0.92261 -0.11435,-0.25097 -0.56258,-0.62304 -0.99607,-0.82679 -0.67294,-0.31633 -1.12272,-0.36685 -3.07707,-0.34564 -1.2589,0.0136 -2.33725,-0.0235 -2.39632,-0.0826 -0.0591,-0.0591 0.35442,-0.24165 0.91887,-0.40574 1.8914,-0.54984 4.65071,-0.0687 5.78292,1.00832 0.82376,0.78362 0.92769,1.54424 0.34221,2.5045 -0.34686,0.56889 -0.40681,0.59217 -1.5034,0.58402 -0.74922,-0.006 -1.48255,-0.14872 -2.13164,-0.41613 z m -19.10321,24.96116 c 2.51149,-1.2877 3.95802,-2.29141 3.95802,-2.74638 0,-0.11573 -0.61964,-0.30728 -1.41293,-0.43678 -2.19459,-0.35826 -4.63092,-1.15003 -7.58262,-2.46428 -2.73475,-1.21765 -3.11569,-1.33776 -3.2995,-1.04035 -0.28337,0.4585 2.35943,4.37717 4.52762,6.71345 0.65524,0.70602 1.02418,0.96161 1.38815,0.96161 0.27265,0 1.36221,-0.44427 2.42126,-0.98727 z m -34.25527,8.20774 c -0.13777,-0.29729 -0.14299,-0.53757 -0.0166,-0.76344 0.15128,-0.27032 0.052,-0.44618 -0.55183,-0.97767 -0.94235,-0.82944 -1.14522,-1.24165 -1.14303,-2.32248 0.003,-1.21039 0.65988,-2.50318 1.84612,-3.63034 1.22748,-1.16634 1.77318,-1.5227 3.25686,-2.1268 3.31244,-1.34869 5.88014,-1.38891 7.73041,-0.12109 0.9827,0.67336 1.27048,1.39323 1.11973,2.80093 -0.12794,1.19471 -0.12741,1.19661 0.33694,1.19661 0.37098,0 0.49592,0.11902 0.61752,0.58829 l 0.15244,0.5883 -2.3488,0.88108 c -2.60274,0.97633 -3.11211,1.02235 -3.19714,0.28882 -0.0447,-0.38586 0.20645,-0.74478 1.28793,-1.84039 1.37329,-1.39123 1.90702,-2.27125 1.70183,-2.80598 -0.29755,-0.77541 -4.32898,0.21253 -7.85664,1.92534 -2.18787,1.06229 -3.00816,1.75943 -3.00816,2.55653 0,1.04626 1.44323,1.12596 3.29376,0.18189 0.88441,-0.45119 0.95564,-0.58158 0.74146,-1.35728 -0.19191,-0.69505 -0.14477,-0.76292 0.69776,-1.00455 l 0.52791,-0.15141 0.91058,2.21686 c 1.23581,3.00869 1.25402,3.10046 0.66783,3.36754 -0.69764,0.31787 -0.92254,0.26982 -1.1582,-0.24741 -0.18959,-0.41607 -0.28217,-0.4512 -0.89526,-0.33962 -0.37609,0.0685 -1.01196,0.26741 -1.41305,0.44213 -0.71513,0.31152 -2.88422,1.09219 -3.02689,1.08939 -0.0398,-5.2e-4 -0.16291,-0.19665 -0.27349,-0.43525 z m 91.72212,-6.57525 c -1.69443,-0.55196 -4.03436,-1.1966 -4.33565,-1.19446 -0.40757,0.003 -0.58241,-0.42196 -0.34686,-0.84287 0.1385,-0.24749 0.38048,-0.31083 1.06355,-0.27843 1.05271,0.0499 3.71702,-0.8358 4.37586,-1.45475 0.54919,-0.51595 0.54117,-0.89816 -0.0301,-1.43488 -0.34488,-0.324 -0.71706,-0.44735 -1.50409,-0.49851 l -1.0458,-0.068 -1.47752,1.33272 c -1.98423,1.78978 -2.89023,2.23484 -4.23971,2.08273 -1.22359,-0.13792 -3.14626,-1.05298 -3.77002,-1.79427 -1.07283,-1.27498 -0.93609,-2.97688 0.32598,-4.05717 0.60437,-0.51732 0.6779,-0.65603 0.49987,-0.94302 -0.30308,-0.48859 0.0696,-1.42208 0.50153,-1.25632 0.17193,0.066 0.9192,0.28251 1.6606,0.48119 2.13594,0.5724 2.61575,0.81742 2.54714,1.30082 -0.0533,0.3758 -0.16088,0.41591 -1.16564,0.43475 -0.7816,0.0146 -1.45134,0.17199 -2.27892,0.53539 -0.6446,0.28306 -1.19603,0.5302 -1.22539,0.54919 -0.0293,0.019 -0.1016,0.33171 -0.16054,0.69493 -0.10422,0.64224 -0.0841,0.67063 0.73231,1.03175 1.06456,0.47091 1.64485,0.3326 2.70313,-0.64425 0.8366,-0.77223 2.26237,-1.9317 2.67957,-2.17911 0.90327,-0.53565 3.01156,-0.3879 4.61163,0.32319 1.00555,0.44687 2.37902,1.75427 2.61109,2.48548 0.35085,1.10541 -0.25925,2.42347 -1.50137,3.24358 -0.53755,0.35492 -0.52014,0.73356 0.0456,0.99133 0.47808,0.21781 0.5206,0.34447 0.34088,1.01512 -0.12609,0.47049 -0.50961,0.50461 -1.61706,0.14386 z m -89.14619,-7.801 c -0.54574,-1.30525 -1.56608,-3.85636 -1.67277,-4.18238 -0.0722,-0.22062 -0.39361,-0.34093 -1.13075,-0.42324 -2.20341,-0.24604 -4.80993,-0.61776 -4.88947,-0.69729 -0.11791,-0.11792 1.75691,-0.9555 3.57661,-1.59786 0.84708,-0.29902 1.64697,-0.63234 1.77755,-0.74071 0.13059,-0.10837 0.23742,-0.48412 0.23742,-0.83499 0,-0.77516 0.53163,-4.43221 0.67897,-4.67062 0.058,-0.0939 0.26709,0.14419 0.46457,0.52911 0.31014,0.60453 1.44726,3.45754 1.70748,4.28403 0.0643,0.20428 0.56752,0.34227 1.85468,0.50861 3.01393,0.38946 3.90488,0.54736 4.08069,0.72316 0.10473,0.10473 -0.41052,0.39327 -1.34576,0.75361 -4.43433,1.70854 -4.06122,1.49599 -4.1239,2.34934 -0.038,0.51741 -0.14076,0.76317 -0.31905,0.76317 -0.14464,0 -0.26298,0.0869 -0.26298,0.19308 0,0.10618 0.0896,0.1377 0.19908,0.07 0.14067,-0.0869 0.16477,0.24422 0.0821,1.1287 -0.17928,1.91852 -0.30014,2.61908 -0.45188,2.61908 -0.0763,0 -0.28442,-0.34867 -0.4626,-0.77482 z m 87.8843,-4.97597 c -0.0637,-0.25366 -0.35009,-0.97283 -0.6365,-1.59817 -0.28641,-0.62534 -0.66263,-1.64266 -0.83605,-2.2607 -0.29463,-1.05008 -0.63601,-1.46474 -1.0137,-1.23132 -0.14196,0.0877 -2.61671,-0.24847 -4.63825,-0.63015 l -0.72925,-0.13768 1.09388,-0.50674 c 0.60163,-0.27872 1.86604,-0.78389 2.80979,-1.12262 0.94375,-0.33873 1.72838,-0.63677 1.74361,-0.66232 0.0152,-0.0255 0.17273,-1.23603 0.34997,-2.68997 0.17724,-1.45395 0.38551,-2.70937 0.46281,-2.78984 0.1169,-0.12167 1.28824,2.47012 1.28824,2.85044 0,0.0664 0.24822,0.64611 0.55161,1.28822 l 0.55161,1.16748 1.31709,0.11244 c 2.35933,0.2014 4.68989,0.53255 4.68989,0.66638 0,0.12006 -2.39141,1.0921 -4.67776,1.90137 -1.04423,0.36962 -1.09037,0.46288 -1.26221,2.5518 -0.10119,1.23004 -0.59052,3.33102 -0.80697,3.46479 -0.0781,0.0482 -0.19415,-0.11974 -0.25781,-0.37341 z M 39.17173,147.48916 c -0.54208,-1.28711 -0.52957,-1.63175 0.15824,-4.35999 l 0.66793,-2.64942 -0.64173,-1.3038 c -2.16595,-4.40056 -1.76782,-7.02853 2.02765,-13.3842 2.99367,-5.01303 7.11275,-9.96838 11.44434,-13.76783 4.70678,-4.12854 11.53492,-7.81348 17.84279,-9.62921 4.30372,-1.23883 7.95367,-1.686 13.58231,-1.66403 3.36549,0.0131 8.26457,0.38193 8.71654,0.65617 0.0691,0.0419 1.27421,0.33219 2.67802,0.64502 6.17753,1.37665 12.3833,4.24292 18.09764,8.3588 2.16816,1.56167 5.91991,4.97856 8.23431,7.49936 2.54738,2.77458 5.25741,6.50393 6.26372,8.61972 1.21304,2.55042 1.09023,4.9794 -0.36858,7.29022 -0.29925,0.47403 -0.28715,0.52636 0.50595,2.18775 0.77287,1.61904 0.81172,1.77776 0.79594,3.25178 -0.0138,1.29572 -0.0886,1.66916 -0.45578,2.27891 l -0.43919,0.72925 -0.10549,-1.18503 c -0.10227,-1.14887 -0.55827,-2.31531 -1.22282,-3.12795 -0.41387,-0.5061 -2.81483,-2.08446 -3.60605,-2.37057 -0.3444,-0.12454 -0.62619,-0.28959 -0.62619,-0.36679 0,-0.0772 0.26664,-0.51928 0.59252,-0.98242 0.54335,-0.77219 0.59159,-0.95417 0.58127,-2.19309 -0.008,-1.01895 0.0493,-1.35102 0.23515,-1.35102 0.51973,0 1.72087,-0.76956 2.07451,-1.32912 0.55559,-0.87908 0.38343,-2.65197 -0.3858,-3.9732 -1.0029,-1.72256 -3.55309,-5.29386 -4.08997,-5.7276 -0.12411,-0.10028 -0.63701,-0.67457 -1.13978,-1.27619 -1.26941,-1.51905 -4.22206,-4.36236 -6.07197,-5.84714 -1.88162,-1.51022 -5.55047,-3.86893 -7.65715,-4.92279 -4.47946,-2.24083 -8.59379,-3.56617 -14.76734,-4.75698 -2.49674,-0.48159 -11.66957,-0.48782 -14.22041,-0.01 -0.95258,0.17856 -2.26523,0.41151 -2.917,0.51765 -3.95474,0.64404 -10.15356,2.94016 -13.76463,5.09859 -1.44303,0.86254 -5.44445,3.48336 -5.56054,3.642 -0.0501,0.0685 -0.37911,0.31957 -0.73104,0.5579 -3.134,2.12236 -9.21306,9.15851 -11.68263,13.52196 -2.8415,5.0206 -3.07945,5.58019 -3.07827,7.23926 0.001,1.47959 0.25567,1.83765 1.68534,2.37007 1.13559,0.4229 1.22406,0.49524 1.22646,1.00272 0.005,1.01256 0.36816,1.87437 1.09809,2.6043 0.39907,0.39907 0.72382,0.79678 0.72166,0.88377 -0.002,0.087 -0.46191,0.48635 -1.02167,0.88744 -2.22262,1.59261 -3.29632,3.14528 -3.83627,5.54752 -0.1819,0.80934 -0.38055,1.47153 -0.44144,1.47153 -0.0609,0 -0.24027,-0.30766 -0.39864,-0.68368 z M 52.2171,135.65659 c -0.15153,-0.0614 -0.18821,-0.34083 -0.11492,-0.87556 l 0.10765,-0.78538 -1.07011,-0.72147 c -1.72086,-1.16018 -5.99782,-3.69726 -6.23278,-3.69726 -0.11857,0 -0.21558,0.0839 -0.21558,0.18639 0,0.31602 1.39686,1.72183 2.53284,2.54907 1.00815,0.73415 1.28338,1.27542 0.64856,1.27542 -0.2795,0 -1.36974,-0.60622 -2.19588,-1.221 -0.31029,-0.2309 -0.6192,-0.41982 -0.68648,-0.41982 -0.0673,0 -0.5928,-0.30467 -1.16782,-0.67704 -0.57503,-0.37238 -1.0722,-0.69305 -1.10482,-0.71262 -0.0326,-0.0196 0.43917,-0.86082 1.04845,-1.86947 0.60928,-1.00864 1.24597,-2.12368 1.41485,-2.47786 0.1689,-0.35417 0.35731,-0.64396 0.4187,-0.64396 0.12633,0 3.38213,1.97507 4.42425,2.6839 0.3792,0.25791 0.68368,0.61636 0.68368,0.80485 0,0.1869 -0.0252,0.33982 -0.056,0.33982 -0.0308,0 -0.62303,-0.28526 -1.31602,-0.63392 -1.48144,-0.74537 -3.10139,-1.1642 -3.38928,-0.87631 -0.13356,0.13356 0.28474,0.48676 1.38545,1.16983 3.45247,2.14249 5.66637,3.43398 5.89138,3.43678 0.13013,0.002 0.41994,-0.19489 0.64404,-0.43669 0.30992,-0.33441 0.48237,-0.39769 0.72054,-0.26441 0.17221,0.0964 0.31311,0.25953 0.31311,0.36259 0,0.31402 -2.08384,3.60567 -2.27892,3.59979 -0.10026,-0.003 -0.28246,-0.046 -0.40487,-0.0957 z m 62.65967,-3.66402 c -0.8511,-1.01167 -1.64726,-2.30501 -1.55959,-2.53349 0.0747,-0.19457 0.26794,-0.23296 0.73331,-0.14566 0.51439,0.0965 0.77763,0.0201 1.41531,-0.41079 0.63778,-0.43095 3.59702,-2.79501 5.57219,-4.45146 0.30218,-0.25342 0.38366,-0.46473 0.30305,-0.78593 -0.0804,-0.3203 -0.0157,-0.48995 0.23897,-0.62622 0.30666,-0.16412 0.54746,0.0705 1.97586,1.92488 0.89465,1.16148 1.69539,2.22895 1.77942,2.37217 0.10695,0.18227 -0.0571,0.46922 -0.54694,0.95663 -1.00062,0.99569 -3.04223,2.74272 -3.20518,2.74272 -0.35578,0 -0.0631,-0.71609 0.59607,-1.4585 0.93687,-1.05514 1.39008,-2.46045 1.08834,-3.37472 -0.14369,-0.4354 -0.32137,-0.63617 -0.56301,-0.63617 -0.27438,0 -1.36359,0.75724 -2.50834,1.74386 -0.0351,0.0303 -0.009,0.14382 0.0581,0.25236 0.0832,0.13453 0.28555,0.1007 0.63603,-0.10635 0.55093,-0.32543 1.10165,-0.23816 1.10165,0.17459 0,0.13903 -0.51276,0.60783 -1.13945,1.04178 -0.62671,0.43395 -1.40895,1.02012 -1.73832,1.30261 -0.32938,0.28248 -0.71423,0.5136 -0.85523,0.5136 -0.45427,0 -0.50881,-0.38054 -0.11467,-0.80007 0.60776,-0.64694 0.3808,-1.20633 -0.24865,-0.61285 -0.13294,0.12534 -0.61371,0.51503 -1.06837,0.86599 -1.05576,0.81493 -1.36314,1.33532 -1.02757,1.73965 0.20425,0.24612 0.20133,0.32035 -0.0181,0.4592 -0.38604,0.24427 -0.60514,0.20848 -0.9049,-0.14783 z m -59.13581,-1.97436 c -0.0608,-0.15837 -0.0628,-0.47805 -0.005,-0.71041 0.0902,-0.35931 -0.36289,-0.89016 -3.03113,-3.55137 -2.3086,-2.30252 -3.2154,-3.09665 -3.4334,-3.00675 -0.52447,0.21629 -0.78822,0.17976 -0.99392,-0.13764 -0.17027,-0.26275 0.14762,-0.66273 2.0688,-2.60305 1.27779,-1.2905 2.39065,-2.26908 2.54604,-2.23884 0.19475,0.0379 0.27603,0.28183 0.27603,0.82829 0,0.76149 0.0506,0.82382 3.00816,3.70423 2.80687,2.73365 3.04638,2.92356 3.57918,2.83801 0.56708,-0.091 0.97864,0.12806 0.97864,0.52103 0,0.28629 -4.36303,4.64446 -4.64964,4.64446 -0.12858,0 -0.28352,-0.12958 -0.34429,-0.28796 z m 1.92584,-2.56615 c 0.62838,-0.56866 0.42261,-1.23039 -0.78354,-2.51976 -1.36001,-1.45386 -1.80317,-1.61161 -2.54118,-0.90456 -0.29428,0.28195 -0.53507,0.60906 -0.53507,0.7269 0,0.11784 0.62255,0.84086 1.38344,1.6067 1.43543,1.44477 1.87244,1.63726 2.47635,1.09072 z m -3.77601,-3.84402 c 0.70611,-0.76151 0.59423,-1.13998 -0.7061,-2.38862 -0.96681,-0.92838 -1.27712,-1.12278 -1.79232,-1.12278 -0.83097,0 -1.21361,0.62021 -0.832,1.34855 0.33956,0.64806 2.32845,2.66234 2.62879,2.66234 0.13116,0 0.44689,-0.22477 0.70163,-0.49949 z m 56.30839,3.12187 c -1.50249,-0.74094 -1.21865,-3.18685 0.68499,-5.90264 1.48338,-2.11623 4.13912,-3.8171 5.59476,-3.58316 2.30038,0.3697 1.84605,4.22362 -0.84063,7.13072 -1.28371,1.38902 -3.4824,2.65718 -4.58504,2.64454 -0.15041,-0.002 -0.53475,-0.13198 -0.85408,-0.28946 z m 1.49217,-0.9604 c 0.77324,-0.3557 2.92808,-2.369 3.83254,-3.58081 0.29749,-0.39859 0.58238,-0.76572 0.63309,-0.81586 0.49107,-0.48555 1.13436,-2.23746 0.97452,-2.65398 -0.17173,-0.44753 -1.28853,-0.31795 -2.03394,0.23599 -2.01828,1.49985 -4.79428,4.73121 -5.04495,5.8725 -0.27585,1.25593 0.27197,1.57088 1.63874,0.94216 z m -50.22128,-1.28629 c -0.12583,-0.23512 -0.12798,-0.39141 -0.006,-0.46654 0.37934,-0.23444 0.15244,-0.87627 -0.79172,-2.23949 -0.53599,-0.77389 -1.02763,-1.53014 -1.09254,-1.68055 -0.0649,-0.15041 -0.71865,-1.13489 -1.45277,-2.18775 -1.14372,-1.64029 -1.40729,-1.91536 -1.84152,-1.92182 -0.2787,-0.004 -0.58181,-0.14167 -0.67354,-0.3056 -0.12987,-0.23206 0.005,-0.43571 0.60956,-0.91988 1.04894,-0.84017 3.30642,-2.32401 3.52047,-2.314 0.1826,0.009 2.50108,3.51868 2.60191,3.93924 0.13832,0.57697 -0.59656,0.16282 -1.66649,-0.93916 -0.94617,-0.97452 -1.25476,-1.18503 -1.7371,-1.18503 -0.35199,0 -0.6283,0.10885 -0.69099,0.27222 -0.12373,0.32243 1.36973,3.03647 1.73687,3.1564 0.34612,0.11307 0.12635,-0.79577 -0.35338,-1.46138 -0.63339,-0.87882 -0.26465,-1.37539 0.49349,-0.66458 0.73099,0.68535 3.3932,5.23323 3.2626,5.57355 -0.0901,0.23492 -0.277,0.11567 -0.90381,-0.57682 -0.43459,-0.48014 -0.83523,-0.80005 -0.89031,-0.71093 -0.11577,0.18733 1.18424,2.23454 1.62752,2.56297 0.21628,0.16024 0.39713,0.1678 0.65917,0.0275 0.50665,-0.27115 0.35694,-1.36181 -0.40326,-2.93803 -0.57778,-1.19798 -0.62695,-1.77769 -0.15068,-1.77639 0.12849,3.6e-4 0.47686,0.45157 0.77415,1.00272 0.29731,0.55114 0.58726,1.00208 0.64437,1.00208 0.0571,0 0.25957,0.26663 0.44992,0.59252 0.19035,0.32589 0.49518,0.69972 0.6774,0.83074 0.60077,0.43199 0.37159,0.82896 -0.99081,1.71622 -0.72678,0.47331 -1.673,1.10912 -2.1027,1.41292 -0.91754,0.64869 -1.05727,0.6699 -1.30939,0.1988 z m 39.37367,-4.57067 c -0.15041,-0.0895 -1.51756,-0.59738 -3.03811,-1.12873 -2.60439,-0.91008 -2.76269,-0.99244 -2.73091,-1.42073 0.0256,-0.34468 0.1588,-0.47697 0.55074,-0.54694 0.57202,-0.10211 0.74686,-0.49208 2.40841,-5.37177 0.8522,-2.5028 0.97713,-3.32555 0.53096,-3.49676 -0.30178,-0.11581 -0.34664,-0.39762 -0.12012,-0.75456 0.11404,-0.17971 0.74789,-0.0283 2.77748,0.66352 3.27446,1.11614 3.63311,1.25779 3.62964,1.43352 -0.006,0.3034 -0.2931,0.54638 -0.78919,0.66789 -0.28518,0.0698 -1.03387,0.63626 -1.66375,1.25868 -1.28761,1.27237 -1.20734,0.97874 -1.48473,5.43132 -0.11123,1.78541 -0.0927,1.95567 0.24812,2.27891 0.27905,0.26466 0.3307,0.44877 0.21308,0.75954 -0.17328,0.45784 -0.15505,0.45008 -0.53162,0.22611 z m -2.0213,-1.71108 c 0.1161,-0.13989 0.26079,-1.07014 0.32154,-2.06721 0.0901,-1.47896 0.0623,-1.83132 -0.15084,-1.91311 -0.5532,-0.21228 -1.1199,0.64642 -1.67424,2.53692 -0.30117,1.02707 -0.2505,1.14981 0.61765,1.49654 0.60366,0.24109 0.64369,0.23869 0.88589,-0.0531 z m 0.90864,-5.53134 c 1.7999,-1.46051 2.20358,-2.01247 2.20533,-3.01541 0.001,-0.58111 -0.0757,-0.71742 -0.49304,-0.87609 -0.64605,-0.24563 -1.26625,-0.0784 -1.5288,0.41213 -0.40554,0.75777 -1.3861,3.70678 -1.30754,3.93242 0.11541,0.3315 0.19841,0.29804 1.12405,-0.45305 z m -26.79516,5.74013 c -0.14939,-0.48811 -0.0777,-0.84789 0.23548,-1.18121 0.34153,-0.36354 0.36155,-0.48604 0.17899,-1.09535 -0.11304,-0.37732 -0.37194,-1.50644 -0.57532,-2.50916 -0.93237,-4.59673 -1.4149,-5.89095 -2.09856,-5.6286 -0.14032,0.0538 -0.26784,-0.0958 -0.32167,-0.37739 -0.0797,-0.41712 -0.01,-0.48811 0.6604,-0.66939 0.41227,-0.11153 1.11288,-0.31652 1.5569,-0.45554 1.64905,-0.51629 2.77635,-0.13753 3.38896,1.13865 0.41691,0.86851 0.57062,2.60546 0.27881,3.1507 -0.18934,0.35378 -0.13363,0.48034 0.48267,1.09664 0.74425,0.74425 1.33442,2.10042 1.33295,3.06301 -0.001,0.84073 -0.50405,1.98408 -1.02157,2.32317 -0.48719,0.31922 -4.0464,1.3132 -4.09804,1.14447 z m 2.77402,-1.76257 c 0.38357,-0.31159 0.42768,-0.48875 0.40542,-1.62824 -0.019,-0.97041 -0.12939,-1.46841 -0.4581,-2.06601 -0.38109,-0.69279 -0.51824,-0.79439 -1.1415,-0.8456 -0.77025,-0.0633 -1.05378,0.17673 -0.92848,0.78593 0.16321,0.79352 0.83873,3.66086 0.91308,3.87567 0.11672,0.33724 0.71922,0.2766 1.20958,-0.12175 z m -1.27619,-5.46831 c 0.3465,-0.28062 0.42445,-0.50579 0.3999,-1.15513 -0.0359,-0.94968 -0.33915,-2.11552 -0.65613,-2.52257 -0.3227,-0.41439 -1.10853,-0.5677 -1.48793,-0.29028 -0.28776,0.21041 -0.29796,0.3493 -0.10351,1.409 0.51792,2.82245 0.88853,3.33574 1.84767,2.55898 z m 17.65967,5.77237 c -0.23979,-0.56594 -0.97393,-3.32425 -1.46784,-5.51496 -0.58941,-2.6143 -0.82492,-2.7636 -1.10128,-0.69819 -0.0916,0.68482 -0.21801,1.99546 -0.28083,2.91253 -0.11212,1.63681 -0.10542,1.67504 0.36479,2.0839 0.61115,0.53138 0.65177,1.12275 0.0688,1.00189 -0.22561,-0.0468 -0.88194,-0.13628 -1.4585,-0.1989 -0.95457,-0.10369 -1.0483,-0.15314 -1.0483,-0.55306 0,-0.30968 0.12709,-0.47108 0.43098,-0.54736 0.55862,-0.1402 0.72689,-0.72662 1.20034,-4.18313 0.55147,-4.02606 0.55271,-4.61591 0.0113,-5.342 -0.38142,-0.51151 -0.4084,-0.62813 -0.17971,-0.77677 0.24253,-0.15763 1.24414,-0.0975 2.02651,0.12166 0.21782,0.061 0.49178,0.85776 1.00973,2.93641 0.39094,1.56897 0.79566,2.88096 0.89936,2.91553 0.23203,0.0773 0.61784,-1.92826 0.61784,-3.21176 0,-0.77515 -0.0823,-1.02115 -0.45855,-1.3698 -0.58627,-0.54333 -0.44349,-1.07562 0.25377,-0.9461 0.26304,0.0489 0.86794,0.14016 1.34424,0.20289 0.9937,0.13088 1.11247,0.42674 0.41481,1.03335 -0.24814,0.21576 -0.53194,0.64593 -0.63065,0.95594 -0.24638,0.77374 -0.6733,3.45705 -0.91636,5.75956 -0.36811,3.48711 -0.67172,4.43025 -1.10044,3.41837 z m -12.08727,-0.43373 c -0.22252,-0.22253 -0.14051,-0.63281 0.21745,-1.08789 0.35994,-0.45759 0.52024,-1.3764 1.03064,-5.90763 0.67603,-6.00176 0.90365,-6.22246 1.97424,-1.91428 1.77818,7.1556 1.79789,7.22169 2.24127,7.5122 0.23894,0.15656 0.42433,0.45971 0.42433,0.69387 0,0.38801 -0.0991,0.42461 -1.4804,0.54688 -1.1617,0.10284 -1.51433,0.0775 -1.63802,-0.11776 -0.25902,-0.40885 -0.18608,-0.67276 0.22172,-0.80219 0.33225,-0.10545 0.36961,-0.21795 0.27303,-0.82199 -0.24695,-1.5443 -0.57646,-1.88437 -1.3992,-1.44406 -0.55016,0.29444 -0.49232,1.70468 0.0921,2.24633 0.7523,0.6972 0.51942,1.05821 -0.74031,1.14764 -0.59866,0.0425 -1.14626,0.0195 -1.21688,-0.0511 z m 2.16086,-4.29871 c 0.42206,-0.1923 0.47168,-0.30202 0.39165,-0.86599 -0.25268,-1.78084 -0.918,-2.10511 -1.13167,-0.55157 -0.108,0.78527 -0.011,1.63776 0.18644,1.63776 0.0387,0 0.28778,-0.0991 0.55358,-0.2202 z m 6.40702,-17.783198 c -0.0205,-0.47629 -0.10684,-0.86599 -0.19199,-0.86599 -0.0851,0 -0.17032,0.3897 -0.18927,0.86599 -0.0234,0.58678 0.0386,0.86599 0.192,0.86599 0.15381,0 0.21451,-0.27774 0.18926,-0.86599 z" id="path21" inkscape:connector-curvature="0"></path></g></svg> 